<svg width="148" height="24" viewBox="0 0 148 24" fill="none" xmlns="http://www.w3.org/2000/svg">
<rect width="34" height="24" rx="5" fill="white"/>
<rect x="0.25" y="0.25" width="33.5" height="23.5" rx="4.75" stroke="black" stroke-opacity="0.114" stroke-width="0.5"/>
<path fill-rule="evenodd" clip-rule="evenodd" d="M10.7501 15.8583H8.69031L7.14576 9.79247C7.07245 9.51344 6.91679 9.26676 6.68782 9.1505C6.11639 8.85833 5.48672 8.6258 4.7998 8.50853V8.27499H8.11789C8.57583 8.27499 8.91929 8.6258 8.97653 9.03323L9.77793 13.4087L11.8367 8.27499H13.8392L10.7501 15.8583ZM14.984 15.8583H13.0388L14.6406 8.27499H16.5858L14.984 15.8583ZM19.1025 10.3758C19.1597 9.96738 19.5032 9.73384 19.9039 9.73384C20.5336 9.6752 21.2195 9.79248 21.7919 10.0836L22.1354 8.45091C21.5629 8.21737 20.9333 8.1001 20.3619 8.1001C18.4738 8.1001 17.1 9.1505 17.1 10.6083C17.1 11.7174 18.0731 12.2997 18.7601 12.6505C19.5032 13.0003 19.7894 13.2338 19.7322 13.5836C19.7322 14.1083 19.1597 14.3419 18.5883 14.3419C17.9014 14.3419 17.2145 14.167 16.5858 13.8748L16.2424 15.5086C16.9293 15.7997 17.6724 15.917 18.3594 15.917C20.4763 15.9746 21.7919 14.9252 21.7919 13.3501C21.7919 11.3666 19.1025 11.2503 19.1025 10.3758ZM28.5998 15.8583L27.0553 8.27499H25.3962C25.0528 8.27499 24.7093 8.50853 24.5948 8.85833L21.7347 15.8583H23.7372L24.1369 14.7503H26.5973L26.8263 15.8583H28.5998ZM25.6824 10.3172L26.2539 13.1752H24.6521L25.6824 10.3172Z" fill="#172B85"/>
<rect x="38" width="34" height="24" rx="5" fill="white"/>
<rect x="38.25" y="0.25" width="33.5" height="23.5" rx="4.75" stroke="black" stroke-opacity="0.114" stroke-width="0.5"/>
<path d="M59.5771 5.02979C63.322 5.02979 66.3584 8.02967 66.3584 11.73C66.3583 15.4302 63.322 18.4302 59.5771 18.4302C57.8982 18.4301 56.3629 17.8254 55.1787 16.8267C53.9945 17.8253 52.4591 18.4302 50.7803 18.4302C47.0357 18.43 44.0001 15.4301 44 11.73C44 8.02981 47.0356 5.03001 50.7803 5.02979C52.459 5.02979 53.9945 5.63386 55.1787 6.63232C56.3629 5.63373 57.8983 5.02981 59.5771 5.02979Z" fill="#ED0006"/>
<path d="M59.5771 5.02979C63.322 5.02987 66.3574 8.02972 66.3574 11.73C66.3573 15.4301 63.3219 18.4301 59.5771 18.4302C57.8982 18.4302 56.3629 17.8253 55.1787 16.8267C56.6359 15.5978 57.5615 13.7713 57.5615 11.73C57.5615 9.68849 56.6361 7.86122 55.1787 6.63232C56.3629 5.63379 57.8984 5.02979 59.5771 5.02979Z" fill="#F9A000"/>
<path d="M55.1787 6.63232C56.6363 7.86122 57.5615 9.68835 57.5615 11.73C57.5615 13.7714 56.636 15.5978 55.1787 16.8267C53.7217 15.5978 52.7969 13.7711 52.7969 11.73C52.7969 9.68864 53.7215 7.86122 55.1787 6.63232Z" fill="#FF5E00"/>
<rect x="76" width="34" height="24" rx="5" fill="white"/>
<rect x="76.25" y="0.25" width="33.5" height="23.5" rx="4.75" stroke="black" stroke-opacity="0.114" stroke-width="0.5"/>
<path d="M102.712 14.1303H102.729L104.147 10.5717H105.144L102.08 17.7055H101.135L102.273 15.2104L100.264 10.5717H101.26L102.712 14.1303ZM97.918 10.4096C98.5954 10.4097 99.1306 10.5946 99.5234 10.9584C99.9163 11.3224 100.109 11.8309 100.109 12.4721V15.5278H99.2334V14.8403H99.1934C98.8119 15.4063 98.3106 15.6898 97.6787 15.6899C97.1435 15.6899 96.6878 15.528 96.3291 15.2045C95.9761 14.9042 95.7768 14.4595 95.7881 13.9916C95.7881 13.4775 95.9818 13.0732 96.3633 12.767C96.7447 12.4609 97.2569 12.31 97.8945 12.31C98.441 12.31 98.8853 12.4144 99.2383 12.6108V12.3969C99.2382 12.0793 99.1023 11.7787 98.8633 11.5707C98.6185 11.3513 98.3049 11.23 97.9805 11.2299C97.468 11.2299 97.0637 11.45 96.7676 11.8891L95.959 11.3744C96.3917 10.7333 97.0468 10.4096 97.918 10.4096ZM93.5732 8.28362C94.1596 8.27214 94.7289 8.49766 95.1445 8.9135C95.9759 9.69916 96.0272 11.0223 95.2471 11.8715L95.1445 11.975C94.7175 12.3851 94.1938 12.5931 93.5732 12.5932H92.0586V15.5278H91.1416V8.28362H93.5732ZM98.0371 13.061C97.6672 13.061 97.354 13.1535 97.1035 13.3324C96.8586 13.5115 96.7334 13.7377 96.7334 14.0092C96.7335 14.2517 96.8473 14.4771 97.0352 14.6157C97.2401 14.7773 97.4909 14.8636 97.7471 14.8578C98.1343 14.8578 98.504 14.7015 98.7773 14.4242C99.0792 14.1354 99.2334 13.7946 99.2334 13.4018C98.9487 13.1708 98.5495 13.0552 98.0371 13.061ZM92.0586 11.7035H93.5957C93.9374 11.7151 94.2685 11.5769 94.502 11.3285C94.9803 10.8259 94.9681 10.0169 94.4727 9.53167C94.2392 9.3007 93.9259 9.17327 93.5957 9.17327H92.0586V11.7035Z" fill="#3C4043"/>
<path d="M88.8936 11.9582C88.8936 11.6751 88.8708 11.392 88.8253 11.1147H84.959V12.7149H87.174C87.0829 13.2291 86.7868 13.6912 86.354 13.9801V15.0199H87.6751C88.4495 14.2978 88.8936 13.2291 88.8936 11.9582Z" fill="#4285F4"/>
<path d="M84.9591 16.0252C86.0638 16.0252 86.9976 15.6555 87.6752 15.0201L86.3542 13.9802C85.9841 14.2344 85.5115 14.3788 84.9591 14.3788C83.8887 14.3788 82.9833 13.6452 82.6587 12.6631H81.2979V13.7376C81.9925 15.1414 83.4104 16.0252 84.9591 16.0252Z" fill="#34A853"/>
<path d="M82.6585 12.6626C82.4876 12.1485 82.4876 11.5882 82.6585 11.0682V9.99951H81.2974C80.7108 11.1722 80.7108 12.5587 81.2974 13.7314L82.6585 12.6626Z" fill="#FBBC04"/>
<path d="M84.9591 9.35271C85.5456 9.34116 86.1094 9.56646 86.5307 9.97662L87.7037 8.78658C86.9578 8.0818 85.9784 7.69475 84.9591 7.70631C83.4104 7.70631 81.9925 8.59594 81.2979 9.99972L82.6587 11.0742C82.9833 10.0864 83.8887 9.35271 84.9591 9.35271Z" fill="#EA4335"/>
<rect x="114" width="34" height="24" rx="5" fill="white"/>
<rect x="114.25" y="0.25" width="33.5" height="23.5" rx="4.75" stroke="black" stroke-opacity="0.114" stroke-width="0.5"/>
<path d="M130.579 4.5C134.377 4.5 137.444 7.65779 137.444 11.5674C137.444 12.883 137.079 14.1233 136.495 15.1758C136.459 15.2134 136.422 15.2138 136.422 15.1387C136.166 13.4095 135.144 12.4697 133.684 12.1689C133.538 12.1314 133.537 12.0557 133.72 12.0557C134.194 12.0181 134.815 12.0186 135.181 12.0938C135.217 11.9058 135.217 11.7177 135.217 11.5674C135.217 9.01111 133.172 6.90625 130.688 6.90625C128.205 6.90645 126.16 9.01123 126.16 11.5674C126.16 14.1235 128.205 16.2283 130.688 16.2285H130.908C130.835 15.8151 130.798 15.4012 130.835 14.9502C130.835 14.6499 130.908 14.6124 131.018 14.8379C131.638 15.9655 132.551 16.9429 134.304 17.3564C135.728 17.6948 137.152 18.0711 138.723 20.0635C138.869 20.2513 138.65 20.4389 138.504 20.2891C136.934 18.8606 135.509 18.3711 134.194 18.3711C132.551 18.4087 131.565 18.5967 130.579 18.5967C126.781 18.5966 123.714 15.4393 123.714 11.5674C123.714 7.69544 126.781 4.5001 130.579 4.5ZM134.049 15.627C134.195 15.6271 134.377 15.7024 134.56 15.8525C134.852 16.1157 134.962 16.417 134.815 16.6426C134.742 16.7552 134.56 16.8299 134.414 16.8301C134.231 16.8301 134.048 16.7554 133.938 16.6426C133.646 16.3794 133.573 16.0029 133.756 15.7773C133.792 15.7022 133.903 15.627 134.049 15.627ZM135.546 14.4619C135.801 14.5748 135.911 14.9507 135.911 15.1387C135.948 15.4394 135.874 15.5898 135.765 15.5898C135.655 15.5897 135.509 15.4768 135.363 15.2139C135.217 14.9508 135.144 14.6875 135.217 14.5371C135.326 14.4619 135.436 14.4243 135.546 14.4619Z" fill="#F28A1A"/>
</svg>
