<svg width="80" height="80" viewBox="0 0 80 80" fill="none" xmlns="http://www.w3.org/2000/svg">
<path d="M57.9156 35.6905L67.0219 27.1217L67.075 27.0686C68.9506 25.193 70.0043 22.6492 70.0043 19.9967C70.0043 17.3443 68.9506 14.8004 67.075 12.9249C65.1994 11.0493 62.6556 9.99561 60.0031 9.99561C57.3507 9.99561 54.8069 11.0493 52.9313 12.9249C52.9313 12.9436 52.8969 12.9592 52.8782 12.978L44.3094 22.0842L18.3719 12.6467C17.9249 12.4842 17.4407 12.4525 16.9763 12.5554C16.5119 12.6584 16.0865 12.8917 15.75 13.228L8.25002 20.728C7.98868 20.9896 7.7886 21.3058 7.66421 21.654C7.53982 22.0022 7.49422 22.3737 7.53068 22.7416C7.56715 23.1096 7.68478 23.4648 7.87509 23.7818C8.06541 24.0989 8.32367 24.3697 8.63127 24.5749L28.5969 37.8842L23.9656 42.4999H17.5C16.8379 42.5002 16.2029 42.7632 15.7344 43.2311L8.2344 50.7311C7.9419 51.0229 7.72628 51.3826 7.60681 51.7781C7.48734 52.1736 7.46774 52.5925 7.54978 52.9975C7.63182 53.4024 7.81293 53.7807 8.07691 54.0985C8.34089 54.4163 8.67953 54.6637 9.06252 54.8186L20.5688 59.4217L25.1625 70.9061L25.1813 70.9561C25.3402 71.3408 25.5926 71.6797 25.9157 71.9421C26.2388 72.2045 26.6223 72.3821 27.0314 72.4588C27.4405 72.5355 27.8622 72.5088 28.2584 72.3812C28.6546 72.2535 29.0126 72.029 29.3 71.728L36.7594 64.2655C36.9928 64.0343 37.1784 63.7594 37.3054 63.4564C37.4325 63.1534 37.4986 62.8284 37.5 62.4999V56.0342L42.1125 51.4217L55.4219 71.3874C55.6271 71.695 55.8979 71.9532 56.2149 72.1436C56.5319 72.3339 56.8872 72.4515 57.2552 72.488C57.6231 72.5244 57.9945 72.4788 58.3427 72.3544C58.6909 72.23 59.0072 72.03 59.2688 71.7686L66.7688 64.2686C67.1051 63.9322 67.3384 63.5068 67.4413 63.0424C67.5443 62.5779 67.5126 62.0938 67.35 61.6468L57.9156 35.6905ZM57.8938 66.0749L44.5844 46.1124C44.3804 45.8024 44.1099 45.5418 43.7926 45.3493C43.4753 45.1569 43.1192 45.0375 42.75 44.9999C42.6656 44.9999 42.5844 44.9999 42.5031 44.9999C42.1745 45 41.8492 45.065 41.5457 45.191C41.2422 45.317 40.9665 45.5016 40.7344 45.7342L33.2344 53.2342C32.7653 53.7022 32.5012 54.3373 32.5 54.9999V61.4655L28.4156 65.5499L24.8219 56.5624C24.6962 56.2503 24.5087 55.9669 24.2709 55.729C24.033 55.4912 23.7495 55.3037 23.4375 55.178L14.4563 51.5843L18.5375 47.4999H25C25.3284 47.5001 25.6537 47.4357 25.9571 47.3102C26.2606 47.1847 26.5364 47.0007 26.7688 46.7686L34.2688 39.2686C34.5307 39.0071 34.7313 38.6906 34.856 38.3421C34.9807 37.9936 35.0265 37.6217 34.99 37.2533C34.9535 36.885 34.8357 36.5293 34.6451 36.212C34.4544 35.8947 34.1957 35.6237 33.8875 35.4186L13.925 22.1061L18.1438 17.8905L44.15 27.3467C44.6082 27.5151 45.1057 27.5456 45.5811 27.4346C46.0564 27.3235 46.4889 27.0757 46.825 26.7217L56.4938 16.4374C57.4362 15.5225 58.7007 15.0152 60.0141 15.0251C61.3275 15.035 62.5843 15.5613 63.5128 16.4902C64.4413 17.4192 64.967 18.6761 64.9763 19.9895C64.9857 21.3029 64.4778 22.5672 63.5625 23.5092L53.2906 33.1749C52.9367 33.511 52.6889 33.9435 52.5778 34.4188C52.4668 34.8942 52.4973 35.3917 52.6656 35.8499L62.1219 61.8561L57.8938 66.0749Z" fill="#0A0A0A"/>
</svg>
