<svg width="28" height="28" viewBox="0 0 28 28" fill="none" xmlns="http://www.w3.org/2000/svg">
<path d="M21.6104 14.1159L15.9688 12.0313L13.8907 6.38531C13.7676 6.05099 13.545 5.76245 13.2528 5.55864C12.9606 5.35483 12.6129 5.24555 12.2566 5.24555C11.9004 5.24555 11.5527 5.35483 11.2605 5.55864C10.9683 5.76245 10.7456 6.05099 10.6226 6.38531L8.5313 12.0313L2.88536 14.1094C2.55104 14.2324 2.2625 14.4551 2.05869 14.7473C1.85488 15.0395 1.74561 15.3872 1.74561 15.7434C1.74561 16.0997 1.85488 16.4474 2.05869 16.7396C2.2625 17.0318 2.55104 17.2544 2.88536 17.3775L8.5313 19.4688L10.6094 25.1147C10.7325 25.449 10.9551 25.7376 11.2473 25.9414C11.5395 26.1452 11.8872 26.2544 12.2435 26.2544C12.5997 26.2544 12.9474 26.1452 13.2396 25.9414C13.5318 25.7376 13.7545 25.449 13.8776 25.1147L15.9688 19.4688L21.6147 17.3906C21.9491 17.2676 22.2376 17.0449 22.4414 16.7527C22.6452 16.4605 22.7545 16.1128 22.7545 15.7566C22.7545 15.4003 22.6452 15.0526 22.4414 14.7604C22.2376 14.4682 21.9491 14.2456 21.6147 14.1225L21.6104 14.1159ZM14.9844 17.9616C14.8657 18.0053 14.7578 18.0744 14.6683 18.1639C14.5788 18.2534 14.5098 18.3612 14.466 18.48L12.2501 24.4836L10.0385 18.4844C9.99479 18.3644 9.92534 18.2554 9.83502 18.165C9.7447 18.0747 9.6357 18.0053 9.51568 17.9616L3.51646 15.75L9.51568 13.5384C9.6357 13.4947 9.7447 13.4253 9.83502 13.335C9.92534 13.2446 9.99479 13.1356 10.0385 13.0156L12.2501 7.01641L14.4616 13.0156C14.5054 13.1344 14.5744 13.2423 14.6639 13.3318C14.7534 13.4213 14.8613 13.4903 14.9801 13.5341L20.9836 15.75L14.9844 17.9616ZM15.7501 4.375C15.7501 4.14294 15.8422 3.92038 16.0063 3.75628C16.1704 3.59219 16.393 3.5 16.6251 3.5H18.3751V1.75C18.3751 1.51794 18.4672 1.29538 18.6313 1.13128C18.7954 0.967187 19.018 0.875 19.2501 0.875C19.4821 0.875 19.7047 0.967187 19.8688 1.13128C20.0329 1.29538 20.1251 1.51794 20.1251 1.75V3.5H21.8751C22.1071 3.5 22.3297 3.59219 22.4938 3.75628C22.6579 3.92038 22.7501 4.14294 22.7501 4.375C22.7501 4.60706 22.6579 4.82962 22.4938 4.99372C22.3297 5.15781 22.1071 5.25 21.8751 5.25H20.1251V7C20.1251 7.23206 20.0329 7.45462 19.8688 7.61872C19.7047 7.78281 19.4821 7.875 19.2501 7.875C19.018 7.875 18.7954 7.78281 18.6313 7.61872C18.4672 7.45462 18.3751 7.23206 18.3751 7V5.25H16.6251C16.393 5.25 16.1704 5.15781 16.0063 4.99372C15.8422 4.82962 15.7501 4.60706 15.7501 4.375ZM27.1251 9.625C27.1251 9.85707 27.0329 10.0796 26.8688 10.2437C26.7047 10.4078 26.4821 10.5 26.2501 10.5H25.3751V11.375C25.3751 11.6071 25.2829 11.8296 25.1188 11.9937C24.9547 12.1578 24.7321 12.25 24.5001 12.25C24.268 12.25 24.0454 12.1578 23.8813 11.9937C23.7172 11.8296 23.6251 11.6071 23.6251 11.375V10.5H22.7501C22.518 10.5 22.2954 10.4078 22.1313 10.2437C21.9672 10.0796 21.8751 9.85707 21.8751 9.625C21.8751 9.39294 21.9672 9.17038 22.1313 9.00628C22.2954 8.84219 22.518 8.75 22.7501 8.75H23.6251V7.875C23.6251 7.64294 23.7172 7.42038 23.8813 7.25628C24.0454 7.09219 24.268 7 24.5001 7C24.7321 7 24.9547 7.09219 25.1188 7.25628C25.2829 7.42038 25.3751 7.64294 25.3751 7.875V8.75H26.2501C26.4821 8.75 26.7047 8.84219 26.8688 9.00628C27.0329 9.17038 27.1251 9.39294 27.1251 9.625Z" fill="#0A0A0A"/>
</svg>
