<svg width="99" height="33" viewBox="0 0 99 33" fill="none" xmlns="http://www.w3.org/2000/svg">
<g clip-path="url(#clip0_432_660)">
<g clip-path="url(#clip1_432_660)">
<g clip-path="url(#clip2_432_660)">
<mask id="mask0_432_660" style="mask-type:luminance" maskUnits="userSpaceOnUse" x="0" y="0" width="99" height="33">
<path d="M0 0H98.618V32.11H0V0Z" fill="white"/>
</mask>
<g mask="url(#mask0_432_660)">
<path fill-rule="evenodd" clip-rule="evenodd" d="M64.5286 0C67.619 0 70.1181 0.694379 71.6941 1.3232L70.6077 8.03553L69.8853 7.70506C68.4398 7.07624 66.5313 6.44876 63.9346 6.51499C60.78 6.51499 59.3659 7.8703 59.3324 9.19283C59.3324 10.6485 61.0442 11.6078 63.8383 13.0293C68.4411 15.2449 70.5756 17.9562 70.5442 21.495C70.4793 27.9424 65.0223 32.11 56.64 32.11C53.056 32.0766 49.6037 31.3139 47.73 30.4557L48.8478 23.4784L49.9 23.9748C52.4968 25.1334 54.2058 25.6285 57.3952 25.6285C59.6957 25.6285 62.1613 24.6685 62.1927 22.586C62.1927 21.2301 61.1425 20.2373 58.0521 18.7161C55.0279 17.2277 50.9843 14.7479 51.0499 10.2832C51.084 4.2325 56.64 0 64.5286 0ZM47.7307 0.563263L42.7339 31.6464H34.7463L39.7425 0.563263H47.7307ZM92.173 0.563263L98.618 31.6464H91.2211C91.2211 31.6464 90.4974 28.0748 90.2679 26.9838H80.0107L78.3344 31.6464H69.9522L81.8181 3.1421C82.6403 1.12519 84.0878 0.563263 85.9935 0.563263H92.173ZM12.9844 0.563263C14.7269 0.628821 16.1403 1.19075 16.6006 3.17621L19.3946 17.4618V17.4605L20.2495 21.7592L28.0732 0.563263H36.5203L23.9634 31.6136H15.5156L8.39627 4.60578C5.94 3.16083 3.13522 1.99818 0 1.19141L0.131777 0.563263H12.9844ZM86.5521 8.96204C86.4839 9.16339 86.4063 9.38682 86.3253 9.61761L86.2016 9.96882C85.847 10.9702 85.4765 11.9871 85.5012 11.9382C85.5012 11.9382 82.97 18.8492 82.3118 20.6347H88.9522C88.3401 17.6723 87.7334 14.7088 87.132 11.7442L87.1133 11.6526L87.1106 11.6405L86.5521 8.96204Z" fill="#D4D4D4"/>
</g>
</g>
</g>
</g>
<defs>
<clipPath id="clip0_432_660">
<rect width="99" height="32.11" fill="white"/>
</clipPath>
<clipPath id="clip1_432_660">
<rect width="99" height="32.11" fill="white"/>
</clipPath>
<clipPath id="clip2_432_660">
<rect width="99" height="32.11" fill="white"/>
</clipPath>
</defs>
</svg>
